<svg width="27" height="31" viewBox="0 0 27 31" fill="none" xmlns="http://www.w3.org/2000/svg">
<path fill-rule="evenodd" clip-rule="evenodd" d="M21.3706 0.0839844H18.6289C18.2485 0.0839844 17.8843 0.236328 17.6152 0.503906C17.3462 0.773438 17.1953 1.13867 17.1948 1.51953V4.19531H14.519C14.2744 4.19531 14.0361 4.25586 13.8262 4.37305C13.709 4.4375 13.6006 4.51953 13.5044 4.61523C13.2354 4.88477 13.084 5.24805 13.0835 5.63086V8.37109C13.084 8.57812 13.1284 8.7793 13.2119 8.96289C13.2827 9.11914 13.3809 9.26172 13.5039 9.38477C13.7729 9.6543 14.1372 9.80469 14.5181 9.80664H17.1948V12.4824C17.1948 12.8633 17.3457 13.2266 17.6147 13.4961C17.8838 13.7656 18.2485 13.916 18.6294 13.918H21.3706C21.752 13.916 22.1162 13.7656 22.3853 13.4961C22.6538 13.2285 22.8052 12.8633 22.8057 12.4824V9.80664H25.4814C25.8618 9.80664 26.2266 9.6543 26.4961 9.38672C26.7651 9.11719 26.9165 8.75195 26.917 8.37109V5.63086C26.9165 5.25 26.7651 4.88477 26.4966 4.61523C26.3833 4.50195 26.2529 4.41016 26.1118 4.3418C25.9175 4.24609 25.7026 4.19531 25.4819 4.19531H22.8057V1.51953C22.8057 1.13867 22.6543 0.773438 22.3857 0.503906C22.1167 0.236328 21.752 0.0839844 21.3706 0.0839844ZM18.6948 1.58398H21.3057V4.94531C21.3057 5.35938 21.6411 5.69531 22.0557 5.69531H25.417V8.30664H22.0557C21.6411 8.30664 21.3057 8.64258 21.3057 9.05664V12.418H18.6948V9.05664C18.6948 8.64258 18.3589 8.30664 17.9448 8.30664H14.5835V5.69531H17.9448C18.3589 5.69531 18.6948 5.35938 18.6948 4.94531V1.58398ZM3.01416 16.7305C3.82959 17.5957 4.93555 18.082 6.08838 18.082C6.65918 18.082 7.22461 17.9629 7.75244 17.7324C8.27979 17.5 8.75928 17.1602 9.1626 16.7305C9.56641 16.3027 9.88672 15.793 10.1055 15.2344C10.3237 14.6738 10.436 14.0742 10.436 13.4668V9.77539C10.436 9.53125 10.3447 9.29492 10.1816 9.12305C10.0186 8.94922 9.79736 8.85156 9.56689 8.85156H8.69727C8.56689 8.85156 8.43994 8.82031 8.32471 8.76172C8.23535 8.7168 8.15332 8.65625 8.08203 8.58203C7.91895 8.4082 7.82764 8.17383 7.82764 7.92969C7.82764 7.68359 7.91895 7.44922 8.08203 7.27539C8.24512 7.10352 8.46631 7.00586 8.69727 7.00586H9.56689C10.2588 7.00586 10.9219 7.29688 11.4111 7.81641C11.9004 8.33594 12.1753 9.04102 12.1753 9.77539V13.4668C12.1763 14.5078 11.9395 15.5352 11.4849 16.457C11.0308 17.3809 10.3726 18.1719 9.56689 18.7656C9.20068 19.1055 8.86719 19.4824 8.56982 19.8887C8.23291 20.3477 7.94238 20.8438 7.7041 21.3711C7.25586 22.3652 7.00195 23.4434 6.95801 24.5449C6.95801 25.3125 7.13867 26.0605 7.4751 26.7266C7.67432 27.1211 7.92822 27.4863 8.23145 27.8086C9.04688 28.6738 10.1528 29.1602 11.3057 29.1602C12.459 29.1602 13.5649 28.6738 14.3804 27.8086C15.1958 26.9414 15.6538 25.7676 15.6538 24.5449V23.4922C14.834 23.2676 14.1196 22.7324 13.6445 21.9883C13.1694 21.2461 12.9658 20.3438 13.0728 19.4512C13.1792 18.5605 13.5889 17.7402 14.2236 17.1465C14.8589 16.5527 15.6768 16.2246 16.5234 16.2246C17.3696 16.2246 18.1875 16.5527 18.8228 17.1465C19.4575 17.7402 19.8672 18.5605 19.9736 19.4512C20.0806 20.3438 19.877 21.2461 19.4019 21.9883C18.9268 22.7324 18.2124 23.2676 17.3926 23.4922V24.5449C17.3926 26.2578 16.7515 27.9023 15.6099 29.1133C14.4683 30.3242 12.9204 31.0059 11.3057 31.0059C9.69141 31.0059 8.14307 30.3242 7.00146 29.1133C5.86035 27.9023 5.21875 26.2578 5.21875 24.5449C5.17725 23.4453 4.92578 22.3672 4.48047 21.373C4.03516 20.3809 3.40479 19.4941 2.62744 18.7656C2.37109 18.5781 2.12939 18.3711 1.9043 18.1465C1.41943 17.6602 1.01172 17.0898 0.699707 16.4609C0.242188 15.5371 0.00244141 14.5098 0.00146484 13.4668V9.77539C0.00146484 9.04102 0.276367 8.33594 0.765625 7.81641C1.25488 7.29688 1.91846 7.00586 2.61035 7.00586H3.47949C3.71045 7.00586 3.93164 7.10352 4.09473 7.27539C4.25781 7.44922 4.34912 7.68359 4.34912 7.92969C4.34912 8.17383 4.25781 8.4082 4.09473 8.58203C3.93164 8.75391 3.71045 8.85156 3.47949 8.85156H2.61035C2.49365 8.85156 2.37939 8.87695 2.27344 8.92383C2.17041 8.96875 2.07568 9.03711 1.99512 9.12305C1.83203 9.29492 1.74072 9.53125 1.74072 9.77539V13.4668C1.74072 14.6914 2.19873 15.8652 3.01416 16.7305ZM15.2935 21.2344C15.6196 21.5801 16.062 21.7754 16.5234 21.7754C16.9844 21.7754 17.4268 21.5801 17.7529 21.2344C18.0791 20.8887 18.2622 20.418 18.2622 19.9297C18.2622 19.4395 18.0791 18.9707 17.7529 18.623C17.5708 18.4297 17.3525 18.2832 17.1147 18.1914C16.9268 18.1191 16.7271 18.082 16.5234 18.082C16.2505 18.082 15.9844 18.1504 15.7451 18.2773C15.5796 18.3652 15.4268 18.4824 15.2935 18.623C14.9673 18.9707 14.7842 19.4395 14.7842 19.9297C14.7842 20.418 14.9673 20.8887 15.2935 21.2344Z" fill="#00AEA8"/>
</svg>
