<svg width="227" height="65" viewBox="0 0 227 65" fill="none" xmlns="http://www.w3.org/2000/svg">
<g filter="url(#filter0_d_534_102)">
<mask id="path-1-inside-1_534_102" fill="white">
<path fill-rule="evenodd" clip-rule="evenodd" d="M19.6193 27.0474C20.8695 28.2976 22.5652 29 24.3333 29C25.2088 29 26.0757 28.8276 26.8846 28.4925C27.6934 28.1575 28.4283 27.6664 29.0474 27.0474C29.6664 26.4283 30.1575 25.6934 30.4925 24.8846C30.8276 24.0757 31 23.2088 31 22.3333V17C31 16.6464 30.8595 16.3072 30.6095 16.0572C30.3594 15.8071 30.0203 15.6667 29.6667 15.6667H28.3333C27.9797 15.6667 27.6406 15.5262 27.3905 15.2761C27.1405 15.0261 27 14.687 27 14.3333C27 13.9797 27.1405 13.6406 27.3905 13.3905C27.6406 13.1405 27.9797 13 28.3333 13H29.6667C30.7275 13 31.7449 13.4214 32.4951 14.1716C33.2452 14.9217 33.6667 15.9391 33.6667 17V22.3333C33.6679 23.8373 33.3047 25.3191 32.6081 26.652C31.9114 27.9849 30.9022 29.1291 29.6667 29.9867C28.47 31.035 27.4985 32.3153 26.811 33.7499C26.1235 35.1846 25.7342 36.7439 25.6667 38.3333C25.6667 40.1014 26.369 41.7971 27.6193 43.0474C28.8695 44.2976 30.5652 45 32.3333 45C34.1014 45 35.7971 44.2976 37.0474 43.0474C38.2976 41.7971 39 40.1014 39 38.3333V36.8133C37.7431 36.4888 36.6477 35.717 35.9192 34.6427C35.1906 33.5683 34.8789 32.2651 35.0425 30.9773C35.2061 29.6896 35.8337 28.5057 36.8077 27.6476C37.7817 26.7895 39.0352 26.316 40.3333 26.316C41.6314 26.316 42.885 26.7895 43.859 27.6476C44.833 28.5057 45.4606 29.6896 45.6242 30.9773C45.7877 32.2651 45.476 33.5683 44.7475 34.6427C44.0189 35.717 42.9235 36.4888 41.6667 36.8133V38.3333C41.6667 40.8087 40.6833 43.1827 38.933 44.933C37.1827 46.6833 34.8087 47.6667 32.3333 47.6667C29.858 47.6667 27.484 46.6833 25.7337 44.933C23.9833 43.1827 23 40.8087 23 38.3333C22.9359 36.7458 22.5507 35.1878 21.8678 33.7532C21.1849 32.3187 20.2184 31.0374 19.0267 29.9867C17.7862 29.1321 16.7718 27.9892 16.0704 26.6561C15.369 25.323 15.0017 23.8396 15 22.3333V17C15 15.9391 15.4214 14.9217 16.1716 14.1716C16.9217 13.4214 17.9391 13 19 13H20.3333C20.687 13 21.0261 13.1405 21.2761 13.3905C21.5262 13.6406 21.6667 13.9797 21.6667 14.3333C21.6667 14.687 21.5262 15.0261 21.2761 15.2761C21.0261 15.5262 20.687 15.6667 20.3333 15.6667H19C18.6464 15.6667 18.3072 15.8071 18.0572 16.0572C17.8071 16.3072 17.6667 16.6464 17.6667 17V22.3333C17.6667 24.1014 18.369 25.7971 19.6193 27.0474ZM38.4477 33.5523C38.9478 34.0524 39.6261 34.3333 40.3333 34.3333C41.0406 34.3333 41.7189 34.0524 42.219 33.5523C42.719 33.0522 43 32.3739 43 31.6667C43 30.9594 42.719 30.2811 42.219 29.781C41.7189 29.281 41.0406 29 40.3333 29C39.6261 29 38.9478 29.281 38.4477 29.781C37.9476 30.2811 37.6667 30.9594 37.6667 31.6667C37.6667 32.3739 37.9476 33.0522 38.4477 33.5523ZM57.912 40L64.176 23.32H61.296L56.328 37.192L51.384 23.32H48.456L54.744 40H57.912ZM76.6161 32.464V30.16H66.7521V32.464H76.6161ZM93.8231 40V23.32H91.0871V30.472H83.2391V23.32H80.5031V40H83.2391V32.704H91.0871V40H93.8231ZM109.449 34.408C109.513 34.008 109.545 33.56 109.545 33.064C109.545 31.784 109.273 30.656 108.729 29.68C108.185 28.688 107.425 27.92 106.449 27.376C105.473 26.832 104.361 26.56 103.113 26.56C101.817 26.56 100.665 26.84 99.657 27.4C98.665 27.96 97.889 28.76 97.329 29.8C96.785 30.824 96.513 32.016 96.513 33.376C96.513 34.736 96.793 35.936 97.353 36.976C97.929 38 98.713 38.8 99.705 39.376C100.713 39.936 101.849 40.216 103.113 40.216C104.665 40.216 105.961 39.832 107.001 39.064C108.057 38.28 108.785 37.28 109.185 36.064H106.233C105.625 37.296 104.585 37.912 103.113 37.912C102.089 37.912 101.225 37.592 100.521 36.952C99.817 36.312 99.425 35.464 99.345 34.408H109.449ZM105.609 29.776C106.313 30.384 106.673 31.192 106.689 32.2H99.369C99.497 31.176 99.897 30.368 100.569 29.776C101.241 29.168 102.049 28.864 102.993 28.864C104.033 28.864 104.905 29.168 105.609 29.776ZM112.142 29.8C111.598 30.824 111.326 32 111.326 33.328C111.326 34.656 111.598 35.848 112.142 36.904C112.701 37.944 113.453 38.76 114.397 39.352C115.341 39.928 116.382 40.216 117.518 40.216C118.542 40.216 119.453 40.008 120.254 39.592C121.053 39.176 121.686 38.656 122.149 38.032V40H124.91V26.776H122.149V28.696C121.686 28.088 121.062 27.584 120.278 27.184C119.509 26.768 118.605 26.56 117.565 26.56C116.413 26.56 115.357 26.848 114.397 27.424C113.453 27.984 112.701 28.776 112.142 29.8ZM121.574 31C121.958 31.672 122.149 32.464 122.149 33.376C122.149 34.288 121.958 35.088 121.574 35.776C121.205 36.448 120.717 36.96 120.109 37.312C119.502 37.664 118.845 37.84 118.142 37.84C117.453 37.84 116.798 37.664 116.174 37.312C115.565 36.944 115.07 36.416 114.686 35.728C114.317 35.04 114.133 34.24 114.133 33.328C114.133 32.416 114.317 31.632 114.686 30.976C115.07 30.304 115.565 29.8 116.174 29.464C116.782 29.112 117.438 28.936 118.142 28.936C118.845 28.936 119.502 29.112 120.109 29.464C120.717 29.816 121.205 30.328 121.574 31ZM131.239 40V22.24H128.503V40H131.239ZM138.023 36.328V29.008H141.239V26.776H138.023V23.488H135.263V26.776H133.703V29.008H135.263V36.328C135.263 37.624 135.591 38.56 136.247 39.136C136.903 39.712 137.847 40 139.079 40H141.239V37.72H139.559C138.999 37.72 138.599 37.616 138.359 37.408C138.135 37.184 138.023 36.824 138.023 36.328ZM153.289 27.208C152.505 26.776 151.609 26.56 150.601 26.56C149.753 26.56 148.969 26.712 148.249 27.016C147.545 27.32 146.961 27.752 146.497 28.312V22.24H143.761V40H146.497V32.608C146.497 31.424 146.793 30.52 147.385 29.896C147.993 29.256 148.809 28.936 149.833 28.936C150.857 28.936 151.665 29.256 152.257 29.896C152.849 30.52 153.145 31.424 153.145 32.608V40H155.857V32.2C155.857 31 155.625 29.976 155.161 29.128C154.713 28.28 154.089 27.64 153.289 27.208ZM159.251 29.8C158.707 30.824 158.435 32.016 158.435 33.376C158.435 34.736 158.707 35.936 159.251 36.976C159.811 38 160.579 38.8 161.555 39.376C162.531 39.936 163.651 40.216 164.915 40.216C166.483 40.216 167.795 39.824 168.851 39.04C169.907 38.24 170.627 37.168 171.011 35.824H168.059C167.547 37.216 166.499 37.912 164.915 37.912C163.795 37.912 162.899 37.512 162.227 36.712C161.571 35.912 161.243 34.8 161.243 33.376C161.243 31.952 161.571 30.848 162.227 30.064C162.899 29.264 163.795 28.864 164.915 28.864C165.715 28.864 166.379 29.048 166.907 29.416C167.435 29.784 167.819 30.296 168.059 30.952H171.011C170.643 29.544 169.931 28.464 168.875 27.712C167.835 26.944 166.515 26.56 164.915 26.56C163.651 26.56 162.531 26.84 161.555 27.4C160.579 27.96 159.811 28.76 159.251 29.8ZM173.641 29.8C173.098 30.824 172.826 32 172.826 33.328C172.826 34.656 173.098 35.848 173.641 36.904C174.202 37.944 174.954 38.76 175.898 39.352C176.842 39.928 177.882 40.216 179.018 40.216C180.042 40.216 180.954 40.008 181.753 39.592C182.553 39.176 183.186 38.656 183.65 38.032V40H186.41V26.776H183.65V28.696C183.186 28.088 182.561 27.584 181.777 27.184C181.01 26.768 180.105 26.56 179.066 26.56C177.913 26.56 176.857 26.848 175.898 27.424C174.954 27.984 174.202 28.776 173.641 29.8ZM183.074 31C183.458 31.672 183.65 32.464 183.65 33.376C183.65 34.288 183.458 35.088 183.074 35.776C182.706 36.448 182.217 36.96 181.609 37.312C181.001 37.664 180.346 37.84 179.641 37.84C178.954 37.84 178.298 37.664 177.674 37.312C177.066 36.944 176.57 36.416 176.186 35.728C175.818 35.04 175.633 34.24 175.633 33.328C175.633 32.416 175.818 31.632 176.186 30.976C176.57 30.304 177.066 29.8 177.674 29.464C178.281 29.112 178.938 28.936 179.641 28.936C180.346 28.936 181.001 29.112 181.609 29.464C182.217 29.816 182.706 30.328 183.074 31ZM194.323 27.136C193.667 27.504 193.139 28.024 192.739 28.696V26.776H190.003V40H192.739V33.04C192.739 31.696 193.011 30.752 193.555 30.208C194.115 29.664 194.931 29.392 196.003 29.392H196.699V26.56C195.787 26.56 194.995 26.752 194.323 27.136ZM211.238 34.408C211.302 34.008 211.334 33.56 211.334 33.064C211.334 31.784 211.062 30.656 210.518 29.68C209.974 28.688 209.214 27.92 208.238 27.376C207.262 26.832 206.15 26.56 204.902 26.56C203.606 26.56 202.454 26.84 201.446 27.4C200.454 27.96 199.678 28.76 199.118 29.8C198.574 30.824 198.302 32.016 198.302 33.376C198.302 34.736 198.582 35.936 199.142 36.976C199.718 38 200.502 38.8 201.494 39.376C202.502 39.936 203.638 40.216 204.902 40.216C206.454 40.216 207.75 39.832 208.79 39.064C209.846 38.28 210.574 37.28 210.974 36.064H208.022C207.414 37.296 206.374 37.912 204.902 37.912C203.878 37.912 203.014 37.592 202.31 36.952C201.606 36.312 201.214 35.464 201.134 34.408H211.238ZM207.398 29.776C208.102 30.384 208.462 31.192 208.478 32.2H201.158C201.286 31.176 201.686 30.368 202.358 29.776C203.03 29.168 203.838 28.864 204.782 28.864C205.822 28.864 206.694 29.168 207.398 29.776Z"/>
</mask>
<path fill-rule="evenodd" clip-rule="evenodd" d="M19.6193 27.0474C20.8695 28.2976 22.5652 29 24.3333 29C25.2088 29 26.0757 28.8276 26.8846 28.4925C27.6934 28.1575 28.4283 27.6664 29.0474 27.0474C29.6664 26.4283 30.1575 25.6934 30.4925 24.8846C30.8276 24.0757 31 23.2088 31 22.3333V17C31 16.6464 30.8595 16.3072 30.6095 16.0572C30.3594 15.8071 30.0203 15.6667 29.6667 15.6667H28.3333C27.9797 15.6667 27.6406 15.5262 27.3905 15.2761C27.1405 15.0261 27 14.687 27 14.3333C27 13.9797 27.1405 13.6406 27.3905 13.3905C27.6406 13.1405 27.9797 13 28.3333 13H29.6667C30.7275 13 31.7449 13.4214 32.4951 14.1716C33.2452 14.9217 33.6667 15.9391 33.6667 17V22.3333C33.6679 23.8373 33.3047 25.3191 32.6081 26.652C31.9114 27.9849 30.9022 29.1291 29.6667 29.9867C28.47 31.035 27.4985 32.3153 26.811 33.7499C26.1235 35.1846 25.7342 36.7439 25.6667 38.3333C25.6667 40.1014 26.369 41.7971 27.6193 43.0474C28.8695 44.2976 30.5652 45 32.3333 45C34.1014 45 35.7971 44.2976 37.0474 43.0474C38.2976 41.7971 39 40.1014 39 38.3333V36.8133C37.7431 36.4888 36.6477 35.717 35.9192 34.6427C35.1906 33.5683 34.8789 32.2651 35.0425 30.9773C35.2061 29.6896 35.8337 28.5057 36.8077 27.6476C37.7817 26.7895 39.0352 26.316 40.3333 26.316C41.6314 26.316 42.885 26.7895 43.859 27.6476C44.833 28.5057 45.4606 29.6896 45.6242 30.9773C45.7877 32.2651 45.476 33.5683 44.7475 34.6427C44.0189 35.717 42.9235 36.4888 41.6667 36.8133V38.3333C41.6667 40.8087 40.6833 43.1827 38.933 44.933C37.1827 46.6833 34.8087 47.6667 32.3333 47.6667C29.858 47.6667 27.484 46.6833 25.7337 44.933C23.9833 43.1827 23 40.8087 23 38.3333C22.9359 36.7458 22.5507 35.1878 21.8678 33.7532C21.1849 32.3187 20.2184 31.0374 19.0267 29.9867C17.7862 29.1321 16.7718 27.9892 16.0704 26.6561C15.369 25.323 15.0017 23.8396 15 22.3333V17C15 15.9391 15.4214 14.9217 16.1716 14.1716C16.9217 13.4214 17.9391 13 19 13H20.3333C20.687 13 21.0261 13.1405 21.2761 13.3905C21.5262 13.6406 21.6667 13.9797 21.6667 14.3333C21.6667 14.687 21.5262 15.0261 21.2761 15.2761C21.0261 15.5262 20.687 15.6667 20.3333 15.6667H19C18.6464 15.6667 18.3072 15.8071 18.0572 16.0572C17.8071 16.3072 17.6667 16.6464 17.6667 17V22.3333C17.6667 24.1014 18.369 25.7971 19.6193 27.0474ZM38.4477 33.5523C38.9478 34.0524 39.6261 34.3333 40.3333 34.3333C41.0406 34.3333 41.7189 34.0524 42.219 33.5523C42.719 33.0522 43 32.3739 43 31.6667C43 30.9594 42.719 30.2811 42.219 29.781C41.7189 29.281 41.0406 29 40.3333 29C39.6261 29 38.9478 29.281 38.4477 29.781C37.9476 30.2811 37.6667 30.9594 37.6667 31.6667C37.6667 32.3739 37.9476 33.0522 38.4477 33.5523ZM57.912 40L64.176 23.32H61.296L56.328 37.192L51.384 23.32H48.456L54.744 40H57.912ZM76.6161 32.464V30.16H66.7521V32.464H76.6161ZM93.8231 40V23.32H91.0871V30.472H83.2391V23.32H80.5031V40H83.2391V32.704H91.0871V40H93.8231ZM109.449 34.408C109.513 34.008 109.545 33.56 109.545 33.064C109.545 31.784 109.273 30.656 108.729 29.68C108.185 28.688 107.425 27.92 106.449 27.376C105.473 26.832 104.361 26.56 103.113 26.56C101.817 26.56 100.665 26.84 99.657 27.4C98.665 27.96 97.889 28.76 97.329 29.8C96.785 30.824 96.513 32.016 96.513 33.376C96.513 34.736 96.793 35.936 97.353 36.976C97.929 38 98.713 38.8 99.705 39.376C100.713 39.936 101.849 40.216 103.113 40.216C104.665 40.216 105.961 39.832 107.001 39.064C108.057 38.28 108.785 37.28 109.185 36.064H106.233C105.625 37.296 104.585 37.912 103.113 37.912C102.089 37.912 101.225 37.592 100.521 36.952C99.817 36.312 99.425 35.464 99.345 34.408H109.449ZM105.609 29.776C106.313 30.384 106.673 31.192 106.689 32.2H99.369C99.497 31.176 99.897 30.368 100.569 29.776C101.241 29.168 102.049 28.864 102.993 28.864C104.033 28.864 104.905 29.168 105.609 29.776ZM112.142 29.8C111.598 30.824 111.326 32 111.326 33.328C111.326 34.656 111.598 35.848 112.142 36.904C112.701 37.944 113.453 38.76 114.397 39.352C115.341 39.928 116.382 40.216 117.518 40.216C118.542 40.216 119.453 40.008 120.254 39.592C121.053 39.176 121.686 38.656 122.149 38.032V40H124.91V26.776H122.149V28.696C121.686 28.088 121.062 27.584 120.278 27.184C119.509 26.768 118.605 26.56 117.565 26.56C116.413 26.56 115.357 26.848 114.397 27.424C113.453 27.984 112.701 28.776 112.142 29.8ZM121.574 31C121.958 31.672 122.149 32.464 122.149 33.376C122.149 34.288 121.958 35.088 121.574 35.776C121.205 36.448 120.717 36.96 120.109 37.312C119.502 37.664 118.845 37.84 118.142 37.84C117.453 37.84 116.798 37.664 116.174 37.312C115.565 36.944 115.07 36.416 114.686 35.728C114.317 35.04 114.133 34.24 114.133 33.328C114.133 32.416 114.317 31.632 114.686 30.976C115.07 30.304 115.565 29.8 116.174 29.464C116.782 29.112 117.438 28.936 118.142 28.936C118.845 28.936 119.502 29.112 120.109 29.464C120.717 29.816 121.205 30.328 121.574 31ZM131.239 40V22.24H128.503V40H131.239ZM138.023 36.328V29.008H141.239V26.776H138.023V23.488H135.263V26.776H133.703V29.008H135.263V36.328C135.263 37.624 135.591 38.56 136.247 39.136C136.903 39.712 137.847 40 139.079 40H141.239V37.72H139.559C138.999 37.72 138.599 37.616 138.359 37.408C138.135 37.184 138.023 36.824 138.023 36.328ZM153.289 27.208C152.505 26.776 151.609 26.56 150.601 26.56C149.753 26.56 148.969 26.712 148.249 27.016C147.545 27.32 146.961 27.752 146.497 28.312V22.24H143.761V40H146.497V32.608C146.497 31.424 146.793 30.52 147.385 29.896C147.993 29.256 148.809 28.936 149.833 28.936C150.857 28.936 151.665 29.256 152.257 29.896C152.849 30.52 153.145 31.424 153.145 32.608V40H155.857V32.2C155.857 31 155.625 29.976 155.161 29.128C154.713 28.28 154.089 27.64 153.289 27.208ZM159.251 29.8C158.707 30.824 158.435 32.016 158.435 33.376C158.435 34.736 158.707 35.936 159.251 36.976C159.811 38 160.579 38.8 161.555 39.376C162.531 39.936 163.651 40.216 164.915 40.216C166.483 40.216 167.795 39.824 168.851 39.04C169.907 38.24 170.627 37.168 171.011 35.824H168.059C167.547 37.216 166.499 37.912 164.915 37.912C163.795 37.912 162.899 37.512 162.227 36.712C161.571 35.912 161.243 34.8 161.243 33.376C161.243 31.952 161.571 30.848 162.227 30.064C162.899 29.264 163.795 28.864 164.915 28.864C165.715 28.864 166.379 29.048 166.907 29.416C167.435 29.784 167.819 30.296 168.059 30.952H171.011C170.643 29.544 169.931 28.464 168.875 27.712C167.835 26.944 166.515 26.56 164.915 26.56C163.651 26.56 162.531 26.84 161.555 27.4C160.579 27.96 159.811 28.76 159.251 29.8ZM173.641 29.8C173.098 30.824 172.826 32 172.826 33.328C172.826 34.656 173.098 35.848 173.641 36.904C174.202 37.944 174.954 38.76 175.898 39.352C176.842 39.928 177.882 40.216 179.018 40.216C180.042 40.216 180.954 40.008 181.753 39.592C182.553 39.176 183.186 38.656 183.65 38.032V40H186.41V26.776H183.65V28.696C183.186 28.088 182.561 27.584 181.777 27.184C181.01 26.768 180.105 26.56 179.066 26.56C177.913 26.56 176.857 26.848 175.898 27.424C174.954 27.984 174.202 28.776 173.641 29.8ZM183.074 31C183.458 31.672 183.65 32.464 183.65 33.376C183.65 34.288 183.458 35.088 183.074 35.776C182.706 36.448 182.217 36.96 181.609 37.312C181.001 37.664 180.346 37.84 179.641 37.84C178.954 37.84 178.298 37.664 177.674 37.312C177.066 36.944 176.57 36.416 176.186 35.728C175.818 35.04 175.633 34.24 175.633 33.328C175.633 32.416 175.818 31.632 176.186 30.976C176.57 30.304 177.066 29.8 177.674 29.464C178.281 29.112 178.938 28.936 179.641 28.936C180.346 28.936 181.001 29.112 181.609 29.464C182.217 29.816 182.706 30.328 183.074 31ZM194.323 27.136C193.667 27.504 193.139 28.024 192.739 28.696V26.776H190.003V40H192.739V33.04C192.739 31.696 193.011 30.752 193.555 30.208C194.115 29.664 194.931 29.392 196.003 29.392H196.699V26.56C195.787 26.56 194.995 26.752 194.323 27.136ZM211.238 34.408C211.302 34.008 211.334 33.56 211.334 33.064C211.334 31.784 211.062 30.656 210.518 29.68C209.974 28.688 209.214 27.92 208.238 27.376C207.262 26.832 206.15 26.56 204.902 26.56C203.606 26.56 202.454 26.84 201.446 27.4C200.454 27.96 199.678 28.76 199.118 29.8C198.574 30.824 198.302 32.016 198.302 33.376C198.302 34.736 198.582 35.936 199.142 36.976C199.718 38 200.502 38.8 201.494 39.376C202.502 39.936 203.638 40.216 204.902 40.216C206.454 40.216 207.75 39.832 208.79 39.064C209.846 38.28 210.574 37.28 210.974 36.064H208.022C207.414 37.296 206.374 37.912 204.902 37.912C203.878 37.912 203.014 37.592 202.31 36.952C201.606 36.312 201.214 35.464 201.134 34.408H211.238ZM207.398 29.776C208.102 30.384 208.462 31.192 208.478 32.2H201.158C201.286 31.176 201.686 30.368 202.358 29.776C203.03 29.168 203.838 28.864 204.782 28.864C205.822 28.864 206.694 29.168 207.398 29.776Z" fill="#00AEA8"/>
<path d="M19.6193 27.0474L18.9122 27.7545H18.9122L19.6193 27.0474ZM26.8846 28.4925L26.5019 27.5687L26.8846 28.4925ZM29.0474 27.0474L28.3403 26.3403H28.3403L29.0474 27.0474ZM27.3905 13.3905L28.0976 14.0976L27.3905 13.3905ZM32.4951 14.1716L31.788 14.8787L31.788 14.8787L32.4951 14.1716ZM33.6667 22.3333H32.6667V22.3342L33.6667 22.3333ZM32.6081 26.652L31.7218 26.1888L31.7218 26.1888L32.6081 26.652ZM29.6667 29.9867L29.0965 29.1652L29.0501 29.1973L29.0077 29.2345L29.6667 29.9867ZM25.6667 38.3333L24.6676 38.2909L24.6667 38.3121V38.3333H25.6667ZM27.6193 43.0474L26.9122 43.7545L27.6193 43.0474ZM39 36.8133H40V36.0387L39.25 35.8451L39 36.8133ZM35.0425 30.9773L34.0505 30.8513V30.8513L35.0425 30.9773ZM36.8077 27.6476L36.1466 26.8972L36.8077 27.6476ZM41.6667 36.8133L41.4167 35.8451L40.6667 36.0387V36.8133H41.6667ZM23 38.3333H24V38.3131L23.9992 38.293L23 38.3333ZM21.8678 33.7532L20.9649 34.183H20.9649L21.8678 33.7532ZM19.0267 29.9867L19.688 29.2366L19.6432 29.1971L19.594 29.1632L19.0267 29.9867ZM16.0704 26.6561L15.1854 27.1217H15.1854L16.0704 26.6561ZM15 22.3333H14L14 22.3345L15 22.3333ZM16.1716 14.1716L15.4645 13.4645L16.1716 14.1716ZM21.2761 13.3905L20.569 14.0976L21.2761 13.3905ZM18.0572 16.0572L17.3501 15.3501L17.3501 15.3501L18.0572 16.0572ZM64.176 23.32L65.1122 23.6716L65.6197 22.32H64.176V23.32ZM57.912 40V41H58.6046L58.8482 40.3516L57.912 40ZM61.296 23.32V22.32H60.5919L60.3546 22.9828L61.296 23.32ZM56.328 37.192L55.386 37.5277L56.3257 40.1643L57.2694 37.5292L56.328 37.192ZM51.384 23.32L52.326 22.9843L52.0892 22.32H51.384V23.32ZM48.456 23.32V22.32H47.0103L47.5203 23.6727L48.456 23.32ZM54.744 40L53.8083 40.3527L54.0523 41H54.744V40ZM76.6161 30.16H77.6161V29.16H76.6161V30.16ZM76.6161 32.464V33.464H77.6161V32.464H76.6161ZM66.7521 30.16V29.16H65.7521V30.16H66.7521ZM66.7521 32.464H65.7521V33.464H66.7521V32.464ZM93.8231 23.32H94.8231V22.32H93.8231V23.32ZM93.8231 40V41H94.8231V40H93.8231ZM91.0871 23.32V22.32H90.0871V23.32H91.0871ZM91.0871 30.472V31.472H92.0871V30.472H91.0871ZM83.2391 30.472H82.2391V31.472H83.2391V30.472ZM83.2391 23.32H84.2391V22.32H83.2391V23.32ZM80.5031 23.32V22.32H79.5031V23.32H80.5031ZM80.5031 40H79.5031V41H80.5031V40ZM83.2391 40V41H84.2391V40H83.2391ZM83.2391 32.704V31.704H82.2391V32.704H83.2391ZM91.0871 32.704H92.0871V31.704H91.0871V32.704ZM91.0871 40H90.0871V41H91.0871V40ZM109.449 34.408V35.408H110.302L110.436 34.566L109.449 34.408ZM108.729 29.68L107.852 30.1608L107.856 30.1669L108.729 29.68ZM106.449 27.376L105.962 28.2495L105.962 28.2495L106.449 27.376ZM99.657 27.4L99.1713 26.5258L99.1654 26.5292L99.657 27.4ZM97.329 29.8L96.4485 29.3259L96.4459 29.3308L97.329 29.8ZM97.353 36.976L96.4725 37.4501L96.4769 37.4582L96.4814 37.4663L97.353 36.976ZM99.705 39.376L99.2029 40.2408L99.2111 40.2456L99.2194 40.2502L99.705 39.376ZM107.001 39.064L107.595 39.8684L107.597 39.8669L107.001 39.064ZM109.185 36.064L110.135 36.3765L110.567 35.064H109.185V36.064ZM106.233 36.064V35.064H105.611L105.336 35.6214L106.233 36.064ZM100.521 36.952L101.194 36.2121L101.194 36.2121L100.521 36.952ZM99.345 34.408V33.408H98.2664L98.3479 34.4835L99.345 34.408ZM106.689 32.2V33.2H107.705L107.689 32.1841L106.689 32.2ZM99.369 32.2L98.3767 32.076L98.2362 33.2H99.369V32.2ZM100.569 29.776L101.23 30.5264L101.24 30.5175L100.569 29.776ZM112.142 29.8L111.264 29.3202L111.258 29.3308L112.142 29.8ZM112.142 36.904L111.253 37.362L111.257 37.3701L111.261 37.3781L112.142 36.904ZM114.397 39.352L113.866 40.1993L113.877 40.2056L114.397 39.352ZM120.254 39.592L120.715 40.4792H120.715L120.254 39.592ZM122.149 38.032H123.149V35.0113L121.347 37.4353L122.149 38.032ZM122.149 40H121.149V41H122.149V40ZM124.91 40V41H125.91V40H124.91ZM124.91 26.776H125.91V25.776H124.91V26.776ZM122.149 26.776V25.776H121.149V26.776H122.149ZM122.149 28.696L121.355 29.3027L123.149 31.6547V28.696H122.149ZM120.278 27.184L119.801 28.0633L119.812 28.0692L119.823 28.0748L120.278 27.184ZM114.397 27.424L114.908 28.2841L114.912 28.2815L114.397 27.424ZM121.574 31L120.696 31.4803L120.701 31.4883L120.705 31.4961L121.574 31ZM121.574 35.776L120.7 35.2886L120.696 35.2957L121.574 35.776ZM120.109 37.312L119.608 36.4466V36.4466L120.109 37.312ZM116.174 37.312L115.656 38.1675L115.669 38.1754L115.682 38.183L116.174 37.312ZM114.686 35.728L113.804 36.1997L113.808 36.2076L113.812 36.2154L114.686 35.728ZM114.686 30.976L113.817 30.4798L113.813 30.4867L114.686 30.976ZM116.174 29.464L116.657 30.3392L116.666 30.3344L116.675 30.3294L116.174 29.464ZM120.109 29.464L119.608 30.3294V30.3294L120.109 29.464ZM131.239 22.24H132.239V21.24H131.239V22.24ZM131.239 40V41H132.239V40H131.239ZM128.503 22.24V21.24H127.503V22.24H128.503ZM128.503 40H127.503V41H128.503V40ZM138.023 29.008V28.008H137.023V29.008H138.023ZM141.239 29.008V30.008H142.239V29.008H141.239ZM141.239 26.776H142.239V25.776H141.239V26.776ZM138.023 26.776H137.023V27.776H138.023V26.776ZM138.023 23.488H139.023V22.488H138.023V23.488ZM135.263 23.488V22.488H134.263V23.488H135.263ZM135.263 26.776V27.776H136.263V26.776H135.263ZM133.703 26.776V25.776H132.703V26.776H133.703ZM133.703 29.008H132.703V30.008H133.703V29.008ZM135.263 29.008H136.263V28.008H135.263V29.008ZM136.247 39.136L136.907 38.3846L136.907 38.3846L136.247 39.136ZM141.239 40V41H142.239V40H141.239ZM141.239 37.72H142.239V36.72H141.239V37.72ZM138.359 37.408L137.652 38.1151L137.677 38.1403L137.704 38.1637L138.359 37.408ZM153.289 27.208L152.806 28.0839L152.814 28.0879L153.289 27.208ZM148.249 27.016L147.86 26.0947L147.852 26.0979L148.249 27.016ZM146.497 28.312H145.497V31.0862L147.267 28.95L146.497 28.312ZM146.497 22.24H147.497V21.24H146.497V22.24ZM143.761 22.24V21.24H142.761V22.24H143.761ZM143.761 40H142.761V41H143.761V40ZM146.497 40V41H147.497V40H146.497ZM147.385 29.896L146.66 29.2073L146.659 29.2077L147.385 29.896ZM152.257 29.896L151.523 30.5751L151.531 30.5843L152.257 29.896ZM153.145 40H152.145V41H153.145V40ZM155.857 40V41H156.857V40H155.857ZM155.161 29.128L154.277 29.5951L154.28 29.6016L154.284 29.608L155.161 29.128ZM159.251 29.8L158.37 29.3259L158.368 29.3309L159.251 29.8ZM159.251 36.976L158.365 37.4395L158.369 37.4477L158.374 37.4558L159.251 36.976ZM161.555 39.376L161.047 40.2373L161.057 40.2434L161.555 39.376ZM168.851 39.04L169.447 39.8429L169.455 39.8371L168.851 39.04ZM171.011 35.824L171.972 36.0987L172.337 34.824H171.011V35.824ZM168.059 35.824V34.824H167.361L167.12 35.4788L168.059 35.824ZM162.227 36.712L161.454 37.3461L161.461 37.3552L162.227 36.712ZM162.227 30.064L161.461 29.4208L161.46 29.4223L162.227 30.064ZM168.059 30.952L167.12 31.2956L167.36 31.952H168.059V30.952ZM171.011 30.952V31.952H172.306L171.978 30.6991L171.011 30.952ZM168.875 27.712L168.281 28.5164L168.288 28.5216L168.295 28.5266L168.875 27.712ZM173.641 29.8L172.764 29.3201L172.758 29.3309L173.641 29.8ZM173.641 36.904L172.753 37.3619L172.757 37.3701L172.761 37.3781L173.641 36.904ZM175.898 39.352L175.366 40.1993L175.377 40.2056L175.898 39.352ZM181.753 39.592L181.292 38.7048L181.292 38.7048L181.753 39.592ZM183.65 38.032H184.65V35.0113L182.847 37.4353L183.65 38.032ZM183.65 40H182.65V41H183.65V40ZM186.41 40V41H187.41V40H186.41ZM186.41 26.776H187.41V25.776H186.41V26.776ZM183.65 26.776V25.776H182.65V26.776H183.65ZM183.65 28.696L182.855 29.3027L184.65 31.6547V28.696H183.65ZM181.777 27.184L181.301 28.0633L181.312 28.0692L181.323 28.0748L181.777 27.184ZM175.898 27.424L176.408 28.2841L176.412 28.2815L175.898 27.424ZM183.074 31L182.196 31.4803L182.201 31.4883L182.205 31.4961L183.074 31ZM183.074 35.776L182.2 35.2886L182.196 35.2957L183.074 35.776ZM181.609 37.312L182.111 38.1774L181.609 37.312ZM177.674 37.312L177.156 38.1675L177.169 38.1754L177.182 38.183L177.674 37.312ZM176.186 35.728L175.304 36.1996L175.308 36.2075L175.312 36.2154L176.186 35.728ZM176.186 30.976L175.317 30.4798L175.313 30.4868L176.186 30.976ZM177.674 29.464L178.157 30.3392L178.166 30.3344L178.175 30.3294L177.674 29.464ZM181.609 29.464L181.108 30.3294L181.609 29.464ZM192.739 28.696H191.739V32.331L193.598 29.2075L192.739 28.696ZM194.323 27.136L194.812 28.0082L194.819 28.0042L194.323 27.136ZM192.739 26.776H193.739V25.776H192.739V26.776ZM190.003 26.776V25.776H189.003V26.776H190.003ZM190.003 40H189.003V41H190.003V40ZM192.739 40V41H193.739V40H192.739ZM193.555 30.208L192.858 29.4907L192.853 29.4958L192.848 29.5009L193.555 30.208ZM196.699 29.392V30.392H197.699V29.392H196.699ZM196.699 26.56H197.699V25.56H196.699V26.56ZM211.238 34.408V35.408H212.091L212.226 34.566L211.238 34.408ZM210.518 29.68L209.641 30.1608L209.645 30.1669L210.518 29.68ZM208.238 27.376L208.725 26.5025V26.5025L208.238 27.376ZM201.446 27.4L200.96 26.5258L200.954 26.5292L201.446 27.4ZM199.118 29.8L198.238 29.3259L198.235 29.3309L199.118 29.8ZM199.142 36.976L198.262 37.4501L198.266 37.4582L198.27 37.4663L199.142 36.976ZM201.494 39.376L200.992 40.2408L201 40.2456L201.008 40.2502L201.494 39.376ZM208.79 39.064L209.384 39.8684L209.386 39.8669L208.79 39.064ZM210.974 36.064L211.924 36.3765L212.356 35.064H210.974V36.064ZM208.022 36.064V35.064H207.4L207.125 35.6214L208.022 36.064ZM202.31 36.952L201.637 37.6919V37.6919L202.31 36.952ZM201.134 34.408V33.408H200.055L200.137 34.4835L201.134 34.408ZM208.478 32.2V33.2H209.494L209.478 32.1841L208.478 32.2ZM207.398 29.776L206.744 30.5328L206.744 30.5328L207.398 29.776ZM201.158 32.2L200.166 32.076L200.025 33.2H201.158V32.2ZM202.358 29.776L203.019 30.5264L203.029 30.5175L202.358 29.776ZM24.3333 28C22.8304 28 21.3891 27.403 20.3264 26.3403L18.9122 27.7545C20.35 29.1923 22.3 30 24.3333 30V28ZM26.5019 27.5687C25.8144 27.8534 25.0775 28 24.3333 28V30C25.3401 30 26.3371 29.8017 27.2672 29.4164L26.5019 27.5687ZM28.3403 26.3403C27.8141 26.8665 27.1894 27.2839 26.5019 27.5687L27.2672 29.4164C28.1974 29.0311 29.0426 28.4664 29.7545 27.7545L28.3403 26.3403ZM29.5687 24.5019C29.2839 25.1894 28.8665 25.8141 28.3403 26.3403L29.7545 27.7545C30.4664 27.0426 31.0311 26.1974 31.4164 25.2672L29.5687 24.5019ZM30 22.3333C30 23.0775 29.8534 23.8144 29.5687 24.5019L31.4164 25.2672C31.8017 24.3371 32 23.3401 32 22.3333H30ZM30 17V22.3333H32V17H30ZM29.9024 16.7643C29.9649 16.8268 30 16.9116 30 17H32C32 16.3812 31.7542 15.7877 31.3166 15.3501L29.9024 16.7643ZM29.6667 16.6667C29.7551 16.6667 29.8399 16.7018 29.9024 16.7643L31.3166 15.3501C30.879 14.9125 30.2855 14.6667 29.6667 14.6667V16.6667ZM28.3333 16.6667H29.6667V14.6667H28.3333V16.6667ZM26.6834 15.9832C27.121 16.4208 27.7145 16.6667 28.3333 16.6667V14.6667C28.2449 14.6667 28.1601 14.6315 28.0976 14.569L26.6834 15.9832ZM26 14.3333C26 14.9522 26.2458 15.5457 26.6834 15.9832L28.0976 14.569C28.0351 14.5065 28 14.4217 28 14.3333H26ZM26.6834 12.6834C26.2458 13.121 26 13.7145 26 14.3333H28C28 14.2449 28.0351 14.1601 28.0976 14.0976L26.6834 12.6834ZM28.3333 12C27.7145 12 27.121 12.2458 26.6834 12.6834L28.0976 14.0976C28.1601 14.0351 28.2449 14 28.3333 14V12ZM29.6667 12H28.3333V14H29.6667V12ZM33.2022 13.4645C32.2645 12.5268 30.9927 12 29.6667 12V14C30.4623 14 31.2254 14.3161 31.788 14.8787L33.2022 13.4645ZM34.6667 17C34.6667 15.6739 34.1399 14.4021 33.2022 13.4645L31.788 14.8787C32.3506 15.4413 32.6667 16.2044 32.6667 17H34.6667ZM34.6667 22.3333V17H32.6667V22.3333H34.6667ZM33.4943 27.1152C34.2658 25.6391 34.6681 23.998 34.6667 22.3325L32.6667 22.3342C32.6678 23.6765 32.3436 24.9992 31.7218 26.1888L33.4943 27.1152ZM30.2369 30.8082C31.6051 29.8585 32.7228 28.5913 33.4943 27.1152L31.7218 26.1888C31.1 27.3785 30.1992 28.3998 29.0965 29.1652L30.2369 30.8082ZM27.7128 34.1821C28.3419 32.8694 29.2307 31.698 30.3256 30.7388L29.0077 29.2345C27.7093 30.372 26.6552 31.7611 25.9092 33.3178L27.7128 34.1821ZM26.6658 38.3758C26.7275 36.9214 27.0837 35.4948 27.7128 34.1821L25.9092 33.3178C25.1632 34.8744 24.7408 36.5663 24.6676 38.2909L26.6658 38.3758ZM28.3264 42.3403C27.2637 41.2776 26.6667 39.8362 26.6667 38.3333H24.6667C24.6667 40.3667 25.4744 42.3167 26.9122 43.7545L28.3264 42.3403ZM32.3333 44C30.8304 44 29.3891 43.403 28.3264 42.3403L26.9122 43.7545C28.35 45.1923 30.3 46 32.3333 46V44ZM36.3403 42.3403C35.2776 43.403 33.8362 44 32.3333 44V46C34.3667 46 36.3167 45.1923 37.7545 43.7545L36.3403 42.3403ZM38 38.3333C38 39.8362 37.403 41.2776 36.3403 42.3403L37.7545 43.7545C39.1923 42.3167 40 40.3667 40 38.3333H38ZM38 36.8133V38.3333H40V36.8133H38ZM35.0915 35.2039C35.9567 36.4797 37.2575 37.3962 38.75 37.7816L39.25 35.8451C38.2288 35.5814 37.3388 34.9543 36.7468 34.0814L35.0915 35.2039ZM34.0505 30.8513C33.8562 32.3805 34.2264 33.9281 35.0915 35.2039L36.7468 34.0814C36.1549 33.2085 35.9016 32.1496 36.0345 31.1033L34.0505 30.8513ZM36.1466 26.8972C34.99 27.9163 34.2447 29.3221 34.0505 30.8513L36.0345 31.1033C36.1674 30.057 36.6774 29.0951 37.4687 28.3979L36.1466 26.8972ZM40.3333 25.316C38.7918 25.316 37.3033 25.8782 36.1466 26.8972L37.4687 28.3979C38.2601 27.7007 39.2786 27.316 40.3333 27.316V25.316ZM44.52 26.8972C43.3634 25.8782 41.8748 25.316 40.3333 25.316V27.316C41.388 27.316 42.4065 27.7007 43.1979 28.3979L44.52 26.8972ZM46.6162 30.8513C46.422 29.3221 45.6767 27.9163 44.52 26.8972L43.1979 28.3979C43.9893 29.0951 44.4992 30.057 44.6321 31.1033L46.6162 30.8513ZM45.5751 35.2039C46.4403 33.9281 46.8104 32.3805 46.6162 30.8513L44.6321 31.1033C44.765 32.1496 44.5118 33.2085 43.9198 34.0814L45.5751 35.2039ZM41.9167 37.7816C43.4092 37.3962 44.71 36.4797 45.5751 35.2039L43.9198 34.0814C43.3279 34.9543 42.4379 35.5814 41.4167 35.8451L41.9167 37.7816ZM42.6667 38.3333V36.8133H40.6667V38.3333H42.6667ZM39.6401 45.6401C41.578 43.7022 42.6667 41.0739 42.6667 38.3333H40.6667C40.6667 40.5435 39.7887 42.6631 38.2259 44.2259L39.6401 45.6401ZM32.3333 48.6667C35.0739 48.6667 37.7022 47.578 39.6401 45.6401L38.2259 44.2259C36.6631 45.7887 34.5435 46.6667 32.3333 46.6667V48.6667ZM25.0266 45.6401C26.9644 47.578 29.5928 48.6667 32.3333 48.6667V46.6667C30.1232 46.6667 28.0036 45.7887 26.4408 44.2259L25.0266 45.6401ZM22 38.3333C22 41.0739 23.0887 43.7022 25.0266 45.6401L26.4408 44.2259C24.878 42.6631 24 40.5435 24 38.3333H22ZM20.9649 34.183C21.5898 35.4956 21.9421 36.9212 22.0008 38.3737L23.9992 38.293C23.9296 36.5705 23.5117 34.8799 22.7708 33.3234L20.9649 34.183ZM18.3653 30.7368C19.4558 31.6981 20.3401 32.8705 20.9649 34.183L22.7708 33.3234C22.0298 31.7669 20.9811 30.3766 19.688 29.2366L18.3653 30.7368ZM15.1854 27.1217C15.9621 28.598 17.0856 29.8637 18.4593 30.8102L19.594 29.1632C18.4869 28.4004 17.5814 27.3803 16.9554 26.1905L15.1854 27.1217ZM14 22.3345C14.0019 24.0026 14.4087 25.6454 15.1854 27.1217L16.9554 26.1905C16.3294 25.0007 16.0015 23.6767 16 22.3322L14 22.3345ZM14 17V22.3333H16V17H14ZM15.4645 13.4645C14.5268 14.4021 14 15.6739 14 17H16C16 16.2044 16.3161 15.4413 16.8787 14.8787L15.4645 13.4645ZM19 12C17.6739 12 16.4021 12.5268 15.4645 13.4645L16.8787 14.8787C17.4413 14.3161 18.2044 14 19 14V12ZM20.3333 12H19V14H20.3333V12ZM21.9832 12.6834C21.5457 12.2458 20.9522 12 20.3333 12V14C20.4217 14 20.5065 14.0351 20.569 14.0976L21.9832 12.6834ZM22.6667 14.3333C22.6667 13.7145 22.4208 13.121 21.9832 12.6834L20.569 14.0976C20.6315 14.1601 20.6667 14.2449 20.6667 14.3333H22.6667ZM21.9832 15.9832C22.4208 15.5457 22.6667 14.9522 22.6667 14.3333H20.6667C20.6667 14.4217 20.6315 14.5065 20.569 14.569L21.9832 15.9832ZM20.3333 16.6667C20.9522 16.6667 21.5457 16.4208 21.9832 15.9832L20.569 14.569C20.5065 14.6315 20.4217 14.6667 20.3333 14.6667V16.6667ZM19 16.6667H20.3333V14.6667H19V16.6667ZM18.7643 16.7643C18.8268 16.7018 18.9116 16.6667 19 16.6667V14.6667C18.3812 14.6667 17.7877 14.9125 17.3501 15.3501L18.7643 16.7643ZM18.6667 17C18.6667 16.9116 18.7018 16.8268 18.7643 16.7643L17.3501 15.3501C16.9125 15.7877 16.6667 16.3812 16.6667 17H18.6667ZM18.6667 22.3333V17H16.6667V22.3333H18.6667ZM20.3264 26.3403C19.2637 25.2776 18.6667 23.8362 18.6667 22.3333H16.6667C16.6667 24.3667 17.4744 26.3167 18.9122 27.7545L20.3264 26.3403ZM40.3333 33.3333C39.8913 33.3333 39.4674 33.1577 39.1548 32.8452L37.7406 34.2594C38.4282 34.947 39.3609 35.3333 40.3333 35.3333V33.3333ZM41.5118 32.8452C41.1993 33.1577 40.7754 33.3333 40.3333 33.3333V35.3333C41.3058 35.3333 42.2384 34.947 42.9261 34.2594L41.5118 32.8452ZM42 31.6667C42 32.1087 41.8244 32.5326 41.5118 32.8452L42.9261 34.2594C43.6137 33.5718 44 32.6391 44 31.6667H42ZM41.5118 30.4882C41.8244 30.8007 42 31.2246 42 31.6667H44C44 30.6942 43.6137 29.7616 42.9261 29.0739L41.5118 30.4882ZM40.3333 30C40.7754 30 41.1993 30.1756 41.5118 30.4882L42.9261 29.0739C42.2384 28.3863 41.3058 28 40.3333 28V30ZM39.1548 30.4882C39.4674 30.1756 39.8913 30 40.3333 30V28C39.3609 28 38.4282 28.3863 37.7406 29.0739L39.1548 30.4882ZM38.6667 31.6667C38.6667 31.2246 38.8423 30.8007 39.1548 30.4882L37.7406 29.0739C37.053 29.7616 36.6667 30.6942 36.6667 31.6667H38.6667ZM39.1548 32.8452C38.8423 32.5326 38.6667 32.1087 38.6667 31.6667H36.6667C36.6667 32.6391 37.053 33.5718 37.7406 34.2594L39.1548 32.8452ZM63.2398 22.9684L56.9758 39.6484L58.8482 40.3516L65.1122 23.6716L63.2398 22.9684ZM61.296 24.32H64.176V22.32H61.296V24.32ZM57.2694 37.5292L62.2374 23.6572L60.3546 22.9828L55.3866 36.8548L57.2694 37.5292ZM50.442 23.6557L55.386 37.5277L57.27 36.8563L52.326 22.9843L50.442 23.6557ZM48.456 24.32H51.384V22.32H48.456V24.32ZM55.6797 39.6473L49.3917 22.9673L47.5203 23.6727L53.8083 40.3527L55.6797 39.6473ZM57.912 39H54.744V41H57.912V39ZM75.6161 30.16V32.464H77.6161V30.16H75.6161ZM66.7521 31.16H76.6161V29.16H66.7521V31.16ZM67.7521 32.464V30.16H65.7521V32.464H67.7521ZM76.6161 31.464H66.7521V33.464H76.6161V31.464ZM92.8231 23.32V40H94.8231V23.32H92.8231ZM91.0871 24.32H93.8231V22.32H91.0871V24.32ZM92.0871 30.472V23.32H90.0871V30.472H92.0871ZM83.2391 31.472H91.0871V29.472H83.2391V31.472ZM82.2391 23.32V30.472H84.2391V23.32H82.2391ZM80.5031 24.32H83.2391V22.32H80.5031V24.32ZM81.5031 40V23.32H79.5031V40H81.5031ZM83.2391 39H80.5031V41H83.2391V39ZM82.2391 32.704V40H84.2391V32.704H82.2391ZM91.0871 31.704H83.2391V33.704H91.0871V31.704ZM92.0871 40V32.704H90.0871V40H92.0871ZM93.8231 39H91.0871V41H93.8231V39ZM108.545 33.064C108.545 33.5184 108.516 33.9123 108.462 34.25L110.436 34.566C110.51 34.1037 110.545 33.6016 110.545 33.064H108.545ZM107.856 30.1669C108.305 30.9735 108.545 31.9293 108.545 33.064H110.545C110.545 31.6387 110.241 30.3385 109.602 29.1931L107.856 30.1669ZM105.962 28.2495C106.772 28.7007 107.397 29.3316 107.852 30.1608L109.606 29.1992C108.973 28.0444 108.078 27.1393 106.936 26.5025L105.962 28.2495ZM103.113 27.56C104.211 27.56 105.152 27.7978 105.962 28.2495L106.936 26.5025C105.794 25.8662 104.511 25.56 103.113 25.56V27.56ZM100.143 28.2742C100.984 27.8065 101.966 27.56 103.113 27.56V25.56C101.668 25.56 100.346 25.8735 99.1714 26.5258L100.143 28.2742ZM98.2095 30.2741C98.6834 29.394 99.3274 28.7344 100.149 28.2708L99.1654 26.5292C98.0026 27.1856 97.0946 28.126 96.4485 29.3259L98.2095 30.2741ZM97.513 33.376C97.513 32.1513 97.7571 31.1256 98.2121 30.2692L96.4459 29.3308C95.8129 30.5224 95.513 31.8807 95.513 33.376H97.513ZM98.2335 36.5019C97.7631 35.6283 97.513 34.5958 97.513 33.376H95.513C95.513 34.8762 95.8229 36.2437 96.4725 37.4501L98.2335 36.5019ZM100.207 38.5112C99.3734 38.0271 98.7153 37.3581 98.2246 36.4857L96.4814 37.4663C97.1427 38.6419 98.0526 39.5729 99.2029 40.2408L100.207 38.5112ZM103.113 39.216C102.002 39.216 101.036 38.9715 100.191 38.5018L99.2194 40.2502C100.39 40.9005 101.696 41.216 103.113 41.216V39.216ZM106.407 38.2596C105.571 38.8767 104.495 39.216 103.113 39.216V41.216C104.835 41.216 106.351 40.7873 107.595 39.8684L106.407 38.2596ZM108.235 35.7515C107.901 36.7658 107.3 37.5965 106.405 38.2611L107.597 39.8669C108.814 38.9635 109.669 37.7942 110.135 36.3765L108.235 35.7515ZM106.233 37.064H109.185V35.064H106.233V37.064ZM103.113 38.912C103.989 38.912 104.802 38.7278 105.507 38.3104C106.215 37.8906 106.752 37.272 107.13 36.5065L105.336 35.6214C105.106 36.088 104.819 36.3934 104.487 36.5896C104.152 36.7882 103.709 36.912 103.113 36.912V38.912ZM99.8483 37.6919C100.751 38.5127 101.861 38.912 103.113 38.912V36.912C102.317 36.912 101.699 36.6713 101.194 36.2121L99.8483 37.6919ZM98.3479 34.4835C98.4448 35.7631 98.9333 36.8601 99.8483 37.6919L101.194 36.2121C100.701 35.7639 100.405 35.165 100.342 34.3325L98.3479 34.4835ZM109.449 33.408H99.345V35.408H109.449V33.408ZM107.689 32.1841C107.669 30.9179 107.202 29.8304 106.263 29.0192L104.955 30.5328C105.424 30.9376 105.677 31.4661 105.689 32.2159L107.689 32.1841ZM99.369 33.2H106.689V31.2H99.369V33.2ZM99.908 29.0256C99.0252 29.8034 98.5301 30.849 98.3767 32.076L100.361 32.324C100.464 31.503 100.769 30.9326 101.23 30.5264L99.908 29.0256ZM102.993 27.864C101.812 27.864 100.762 28.2526 99.8981 29.0345L101.24 30.5175C101.72 30.0833 102.286 29.864 102.993 29.864V27.864ZM106.263 29.0192C105.355 28.2356 104.243 27.864 102.993 27.864V29.864C103.823 29.864 104.455 30.1004 104.955 30.5328L106.263 29.0192ZM112.326 33.328C112.326 32.1396 112.568 31.1289 113.025 30.2692L111.258 29.3308C110.627 30.5191 110.326 31.8604 110.326 33.328H112.326ZM113.03 36.446C112.568 35.5477 112.326 34.5157 112.326 33.328H110.326C110.326 34.7963 110.627 36.1483 111.253 37.362L113.03 36.446ZM114.929 38.5048C114.14 38.0104 113.505 37.3269 113.022 36.4299L111.261 37.3781C111.898 38.5611 112.767 39.5096 113.866 40.1992L114.929 38.5048ZM117.518 39.216C116.56 39.216 115.701 38.9759 114.918 38.4984L113.877 40.2056C114.982 40.8801 116.203 41.216 117.518 41.216V39.216ZM119.792 38.7048C119.153 39.0372 118.403 39.216 117.518 39.216V41.216C118.68 41.216 119.754 40.9788 120.715 40.4792L119.792 38.7048ZM121.347 37.4353C120.987 37.9199 120.479 38.3475 119.792 38.7048L120.715 40.4792C121.628 40.0045 122.384 39.3921 122.952 38.6287L121.347 37.4353ZM123.149 40V38.032H121.149V40H123.149ZM124.91 39H122.149V41H124.91V39ZM123.91 26.776V40H125.91V26.776H123.91ZM122.149 27.776H124.91V25.776H122.149V27.776ZM123.149 28.696V26.776H121.149V28.696H123.149ZM119.823 28.0748C120.494 28.417 120.994 28.8304 121.355 29.3027L122.944 28.0893C122.377 27.3456 121.629 26.751 120.732 26.2932L119.823 28.0748ZM117.565 27.56C118.471 27.56 119.205 27.7403 119.801 28.0633L120.754 26.3047C119.814 25.7957 118.74 25.56 117.565 25.56V27.56ZM114.912 28.2815C115.712 27.8015 116.589 27.56 117.565 27.56V25.56C116.238 25.56 115.003 25.8945 113.883 26.5665L114.912 28.2815ZM113.019 30.2798C113.498 29.4028 114.128 28.7467 114.908 28.2841L113.887 26.5639C112.779 27.2213 111.905 28.1492 111.264 29.3202L113.019 30.2798ZM123.149 33.376C123.149 32.3212 122.926 31.3519 122.442 30.5039L120.705 31.4961C120.989 31.9921 121.149 32.6068 121.149 33.376H123.149ZM122.447 36.2634C122.926 35.4044 123.149 34.4315 123.149 33.376H121.149C121.149 34.1445 120.989 34.7716 120.7 35.2886L122.447 36.2634ZM120.611 38.1774C121.391 37.7256 122.003 37.0736 122.451 36.2563L120.696 35.2957C120.408 35.8224 120.044 36.1944 119.608 36.4466L120.611 38.1774ZM118.142 38.84C119.021 38.84 119.85 38.6178 120.611 38.1774L119.608 36.4466C119.153 36.7102 118.67 36.84 118.142 36.84V38.84ZM115.682 38.183C116.45 38.6159 117.274 38.84 118.142 38.84V36.84C117.633 36.84 117.145 36.7121 116.665 36.441L115.682 38.183ZM113.812 36.2154C114.271 37.038 114.884 37.7002 115.656 38.1675L116.691 36.4565C116.247 36.1878 115.868 35.794 115.559 35.2406L113.812 36.2154ZM113.133 33.328C113.133 34.3767 113.346 35.3438 113.804 36.1997L115.567 35.2563C115.289 34.7362 115.133 34.1033 115.133 33.328H113.133ZM113.813 30.4867C113.345 31.3209 113.133 32.2809 113.133 33.328H115.133C115.133 32.5511 115.29 31.9431 115.558 31.4653L113.813 30.4867ZM115.69 28.5888C114.903 29.0233 114.282 29.6673 113.817 30.4799L115.554 31.4721C115.857 30.9407 116.228 30.5767 116.657 30.3392L115.69 28.5888ZM118.142 27.936C117.262 27.936 116.433 28.1582 115.672 28.5986L116.675 30.3294C117.13 30.0658 117.613 29.936 118.142 29.936V27.936ZM120.611 28.5986C119.85 28.1582 119.021 27.936 118.142 27.936V29.936C118.67 29.936 119.153 30.0658 119.608 30.3294L120.611 28.5986ZM122.451 30.5197C122.003 29.7024 121.391 29.0504 120.611 28.5986L119.608 30.3294C120.044 30.5816 120.408 30.9536 120.696 31.4803L122.451 30.5197ZM130.239 22.24V40H132.239V22.24H130.239ZM128.503 23.24H131.239V21.24H128.503V23.24ZM129.503 40V22.24H127.503V40H129.503ZM131.239 39H128.503V41H131.239V39ZM137.023 29.008V36.328H139.023V29.008H137.023ZM141.239 28.008H138.023V30.008H141.239V28.008ZM140.239 26.776V29.008H142.239V26.776H140.239ZM138.023 27.776H141.239V25.776H138.023V27.776ZM137.023 23.488V26.776H139.023V23.488H137.023ZM135.263 24.488H138.023V22.488H135.263V24.488ZM136.263 26.776V23.488H134.263V26.776H136.263ZM133.703 27.776H135.263V25.776H133.703V27.776ZM134.703 29.008V26.776H132.703V29.008H134.703ZM135.263 28.008H133.703V30.008H135.263V28.008ZM136.263 36.328V29.008H134.263V36.328H136.263ZM136.907 38.3846C136.555 38.0751 136.263 37.4775 136.263 36.328H134.263C134.263 37.7705 134.628 39.0449 135.587 39.8874L136.907 38.3846ZM139.079 39C137.991 39 137.318 38.7452 136.907 38.3846L135.587 39.8874C136.489 40.6788 137.704 41 139.079 41V39ZM141.239 39H139.079V41H141.239V39ZM140.239 37.72V40H142.239V37.72H140.239ZM139.559 38.72H141.239V36.72H139.559V38.72ZM137.704 38.1637C138.221 38.6116 138.925 38.72 139.559 38.72V36.72C139.336 36.72 139.186 36.6988 139.091 36.6742C138.997 36.6497 138.988 36.6298 139.014 36.6523L137.704 38.1637ZM137.023 36.328C137.023 36.9435 137.158 37.621 137.652 38.1151L139.066 36.7009C139.089 36.7234 139.079 36.7275 139.062 36.6729C139.044 36.614 139.023 36.5051 139.023 36.328H137.023ZM150.601 27.56C151.462 27.56 152.188 27.7431 152.806 28.0838L153.772 26.3322C152.822 25.8089 151.756 25.56 150.601 25.56V27.56ZM148.638 27.9372C149.225 27.6895 149.875 27.56 150.601 27.56V25.56C149.631 25.56 148.713 25.7345 147.86 26.0948L148.638 27.9372ZM147.267 28.95C147.625 28.5182 148.078 28.179 148.645 27.9341L147.852 26.0979C147.012 26.461 146.297 26.9858 145.727 27.674L147.267 28.95ZM145.497 22.24V28.312H147.497V22.24H145.497ZM143.761 23.24H146.497V21.24H143.761V23.24ZM144.761 40V22.24H142.761V40H144.761ZM146.497 39H143.761V41H146.497V39ZM145.497 32.608V40H147.497V32.608H145.497ZM146.659 29.2077C145.834 30.078 145.497 31.2656 145.497 32.608H147.497C147.497 31.5824 147.752 30.962 148.11 30.5843L146.659 29.2077ZM149.833 27.936C148.583 27.936 147.487 28.3363 146.66 29.2073L148.11 30.5847C148.499 30.1757 149.035 29.936 149.833 29.936V27.936ZM152.991 29.217C152.176 28.3364 151.083 27.936 149.833 27.936V29.936C150.631 29.936 151.153 30.1756 151.523 30.575L152.991 29.217ZM154.145 32.608C154.145 31.2656 153.808 30.078 152.982 29.2077L151.531 30.5843C151.89 30.962 152.145 31.5824 152.145 32.608H154.145ZM154.145 40V32.608H152.145V40H154.145ZM155.857 39H153.145V41H155.857V39ZM154.857 32.2V40H156.857V32.2H154.857ZM154.284 29.608C154.65 30.2774 154.857 31.1278 154.857 32.2H156.857C156.857 30.8722 156.6 29.6746 156.038 28.648L154.284 29.608ZM152.814 28.0879C153.43 28.4205 153.916 28.912 154.277 29.5951L156.045 28.6609C155.51 27.648 154.748 26.8595 153.764 26.3281L152.814 28.0879ZM159.435 33.376C159.435 32.1513 159.679 31.1256 160.134 30.2691L158.368 29.3309C157.735 30.5224 157.435 31.8807 157.435 33.376H159.435ZM160.137 36.5125C159.679 35.6367 159.435 34.6003 159.435 33.376H157.435C157.435 34.8717 157.735 36.2353 158.365 37.4395L160.137 36.5125ZM162.063 38.5148C161.247 38.0332 160.605 37.3671 160.128 36.4962L158.374 37.4558C159.017 38.6329 159.911 39.5668 161.047 40.2372L162.063 38.5148ZM164.915 39.216C163.804 39.216 162.859 38.9714 162.053 38.5086L161.057 40.2434C162.203 40.9006 163.498 41.216 164.915 41.216V39.216ZM168.255 38.2371C167.402 38.8699 166.311 39.216 164.915 39.216V41.216C166.655 41.216 168.187 40.7781 169.447 39.8429L168.255 38.2371ZM170.049 35.5493C169.721 36.6973 169.12 37.5812 168.247 38.2429L169.455 39.8371C170.693 38.8988 171.532 37.6387 171.972 36.0987L170.049 35.5493ZM168.059 36.824H171.011V34.824H168.059V36.824ZM164.915 38.912C165.853 38.912 166.716 38.705 167.442 38.223C168.173 37.7375 168.682 37.0278 168.997 36.1692L167.12 35.4788C166.924 36.0122 166.653 36.3465 166.336 36.557C166.013 36.771 165.561 36.912 164.915 36.912V38.912ZM161.461 37.3552C162.338 38.3993 163.524 38.912 164.915 38.912V36.912C164.066 36.912 163.46 36.6247 162.993 36.0688L161.461 37.3552ZM160.243 33.376C160.243 34.9448 160.604 36.3103 161.454 37.3461L163 36.0779C162.538 35.5137 162.243 34.6552 162.243 33.376H160.243ZM161.46 29.4223C160.604 30.4457 160.243 31.8088 160.243 33.376H162.243C162.243 32.0952 162.538 31.2503 162.994 30.7057L161.46 29.4223ZM164.915 27.864C163.524 27.864 162.338 28.3767 161.461 29.4208L162.993 30.7072C163.46 30.1513 164.066 29.864 164.915 29.864V27.864ZM167.479 28.5956C166.746 28.085 165.869 27.864 164.915 27.864V29.864C165.561 29.864 166.012 30.011 166.335 30.2364L167.479 28.5956ZM168.998 30.6084C168.694 29.7768 168.19 29.0912 167.479 28.5956L166.335 30.2364C166.68 30.4768 166.944 30.8152 167.12 31.2956L168.998 30.6084ZM171.011 29.952H168.059V31.952H171.011V29.952ZM168.295 28.5266C169.136 29.1258 169.727 29.9941 170.043 31.2049L171.978 30.6991C171.559 29.0938 170.725 27.8022 169.455 26.8974L168.295 28.5266ZM164.915 27.56C166.353 27.56 167.45 27.903 168.281 28.5164L169.469 26.9076C168.22 25.985 166.677 25.56 164.915 25.56V27.56ZM162.053 28.2674C162.859 27.8046 163.804 27.56 164.915 27.56V25.56C163.498 25.56 162.203 25.8754 161.057 26.5326L162.053 28.2674ZM160.131 30.2741C160.608 29.3898 161.247 28.7298 162.053 28.2674L161.057 26.5326C159.911 27.1902 159.014 28.1302 158.37 29.3259L160.131 30.2741ZM173.826 33.328C173.826 32.1396 174.068 31.1289 174.525 30.2691L172.758 29.3309C172.127 30.5191 171.826 31.8604 171.826 33.328H173.826ZM174.53 36.446C174.068 35.5477 173.826 34.5157 173.826 33.328H171.826C171.826 34.7963 172.127 36.1483 172.753 37.3619L174.53 36.446ZM176.429 38.5048C175.64 38.0104 175.005 37.3269 174.522 36.4299L172.761 37.3781C173.398 38.5611 174.267 39.5096 175.366 40.1992L176.429 38.5048ZM179.018 39.216C178.06 39.216 177.201 38.9759 176.418 38.4984L175.377 40.2056C176.482 40.8801 177.703 41.216 179.018 41.216V39.216ZM181.292 38.7048C180.653 39.0372 179.903 39.216 179.018 39.216V41.216C180.18 41.216 181.254 40.9788 182.215 40.4792L181.292 38.7048ZM182.847 37.4353C182.487 37.9199 181.979 38.3475 181.292 38.7048L182.215 40.4792C183.128 40.0045 183.884 39.3921 184.452 38.6287L182.847 37.4353ZM184.65 40V38.032H182.65V40H184.65ZM186.41 39H183.65V41H186.41V39ZM185.41 26.776V40H187.41V26.776H185.41ZM183.65 27.776H186.41V25.776H183.65V27.776ZM184.65 28.696V26.776H182.65V28.696H184.65ZM181.323 28.0748C181.994 28.417 182.494 28.8304 182.855 29.3027L184.444 28.0893C183.877 27.3456 183.129 26.751 182.232 26.2932L181.323 28.0748ZM179.066 27.56C179.971 27.56 180.705 27.7403 181.301 28.0633L182.254 26.3047C181.314 25.7957 180.24 25.56 179.066 25.56V27.56ZM176.412 28.2815C177.212 27.8015 178.089 27.56 179.066 27.56V25.56C177.738 25.56 176.503 25.8945 175.383 26.5665L176.412 28.2815ZM174.519 30.2798C174.998 29.4028 175.628 28.7467 176.408 28.2841L175.387 26.5639C174.279 27.2213 173.405 28.1492 172.764 29.3202L174.519 30.2798ZM184.65 33.376C184.65 32.3212 184.426 31.3519 183.942 30.5039L182.205 31.4961C182.489 31.9921 182.65 32.6068 182.65 33.376H184.65ZM183.947 36.2634C184.426 35.4044 184.65 34.4315 184.65 33.376H182.65C182.65 34.1445 182.489 34.7716 182.2 35.2886L183.947 36.2634ZM182.111 38.1774C182.891 37.7256 183.503 37.0736 183.951 36.2563L182.196 35.2957C181.908 35.8224 181.544 36.1944 181.108 36.4466L182.111 38.1774ZM179.641 38.84C180.521 38.84 181.35 38.6178 182.111 38.1774L181.108 36.4466C180.653 36.7102 180.17 36.84 179.641 36.84V38.84ZM177.182 38.183C177.95 38.6159 178.774 38.84 179.641 38.84V36.84C179.133 36.84 178.645 36.7121 178.165 36.441L177.182 38.183ZM175.312 36.2154C175.771 37.038 176.384 37.7002 177.156 38.1675L178.191 36.4565C177.747 36.1878 177.368 35.794 177.059 35.2406L175.312 36.2154ZM174.633 33.328C174.633 34.3767 174.846 35.3438 175.304 36.1996L177.067 35.2564C176.789 34.7362 176.633 34.1033 176.633 33.328H174.633ZM175.313 30.4868C174.845 31.3209 174.633 32.2809 174.633 33.328H176.633C176.633 32.5511 176.79 31.9431 177.058 31.4652L175.313 30.4868ZM177.19 28.5888C176.403 29.0233 175.782 29.6673 175.317 30.4799L177.054 31.4721C177.357 30.9407 177.728 30.5767 178.157 30.3392L177.19 28.5888ZM179.641 27.936C178.762 27.936 177.933 28.1582 177.172 28.5986L178.175 30.3294C178.63 30.0658 179.113 29.936 179.641 29.936V27.936ZM182.111 28.5986C181.35 28.1582 180.521 27.936 179.641 27.936V29.936C180.17 29.936 180.653 30.0658 181.108 30.3294L182.111 28.5986ZM183.951 30.5197C183.503 29.7024 182.891 29.0504 182.111 28.5986L181.108 30.3294C181.544 30.5816 181.908 30.9536 182.196 31.4803L183.951 30.5197ZM193.598 29.2075C193.913 28.6798 194.315 28.2869 194.812 28.0081L193.834 26.2639C193.019 26.7211 192.366 27.3682 191.88 28.1845L193.598 29.2075ZM191.739 26.776V28.696H193.739V26.776H191.739ZM190.003 27.776H192.739V25.776H190.003V27.776ZM191.003 40V26.776H189.003V40H191.003ZM192.739 39H190.003V41H192.739V39ZM191.739 33.04V40H193.739V33.04H191.739ZM192.848 29.5009C192.018 30.3312 191.739 31.6142 191.739 33.04H193.739C193.739 31.7778 194.005 31.1728 194.262 30.9151L192.848 29.5009ZM196.003 28.392C194.77 28.392 193.666 28.7066 192.858 29.4907L194.252 30.9253C194.565 30.6214 195.093 30.392 196.003 30.392V28.392ZM196.699 28.392H196.003V30.392H196.699V28.392ZM195.699 26.56V29.392H197.699V26.56H195.699ZM194.819 28.0042C195.315 27.7209 195.93 27.56 196.699 27.56V25.56C195.644 25.56 194.675 25.7831 193.827 26.2678L194.819 28.0042ZM210.334 33.064C210.334 33.5184 210.305 33.9123 210.251 34.25L212.226 34.566C212.299 34.1037 212.334 33.6016 212.334 33.064H210.334ZM209.645 30.1669C210.094 30.9735 210.334 31.9293 210.334 33.064H212.334C212.334 31.6387 212.03 30.3385 211.392 29.1931L209.645 30.1669ZM207.751 28.2495C208.561 28.7007 209.187 29.3316 209.641 30.1608L211.395 29.1992C210.762 28.0444 209.867 27.1393 208.725 26.5025L207.751 28.2495ZM204.902 27.56C206 27.56 206.941 27.7978 207.751 28.2495L208.725 26.5025C207.583 25.8662 206.3 25.56 204.902 25.56V27.56ZM201.932 28.2742C202.773 27.8065 203.755 27.56 204.902 27.56V25.56C203.458 25.56 202.135 25.8735 200.96 26.5258L201.932 28.2742ZM199.999 30.2741C200.472 29.394 201.116 28.7344 201.938 28.2708L200.954 26.5292C199.792 27.1856 198.884 28.126 198.238 29.3259L199.999 30.2741ZM199.302 33.376C199.302 32.1513 199.546 31.1256 200.001 30.2691L198.235 29.3309C197.602 30.5224 197.302 31.8807 197.302 33.376H199.302ZM200.023 36.5019C199.552 35.6283 199.302 34.5958 199.302 33.376H197.302C197.302 34.8762 197.612 36.2437 198.262 37.4501L200.023 36.5019ZM201.996 38.5112C201.162 38.0271 200.504 37.3581 200.014 36.4857L198.27 37.4663C198.932 38.6419 199.842 39.5729 200.992 40.2408L201.996 38.5112ZM204.902 39.216C203.791 39.216 202.825 38.9715 201.98 38.5018L201.008 40.2502C202.179 40.9005 203.485 41.216 204.902 41.216V39.216ZM208.196 38.2596C207.36 38.8767 206.284 39.216 204.902 39.216V41.216C206.624 41.216 208.14 40.7873 209.384 39.8684L208.196 38.2596ZM210.024 35.7515C209.691 36.7658 209.089 37.5965 208.194 38.2611L209.386 39.8669C210.603 38.9635 211.458 37.7942 211.924 36.3765L210.024 35.7515ZM208.022 37.064H210.974V35.064H208.022V37.064ZM204.902 38.912C205.778 38.912 206.591 38.7278 207.296 38.3104C208.005 37.8906 208.541 37.272 208.919 36.5065L207.125 35.6214C206.895 36.088 206.608 36.3934 206.276 36.5896C205.941 36.7882 205.498 36.912 204.902 36.912V38.912ZM201.637 37.6919C202.54 38.5127 203.65 38.912 204.902 38.912V36.912C204.106 36.912 203.488 36.6713 202.983 36.2121L201.637 37.6919ZM200.137 34.4835C200.234 35.763 200.722 36.8601 201.637 37.6919L202.983 36.2121C202.49 35.7639 202.194 35.165 202.131 34.3325L200.137 34.4835ZM211.238 33.408H201.134V35.408H211.238V33.408ZM209.478 32.1841C209.458 30.9179 208.991 29.8304 208.052 29.0192L206.744 30.5328C207.213 30.9376 207.466 31.4661 207.478 32.2159L209.478 32.1841ZM201.158 33.2H208.478V31.2H201.158V33.2ZM201.697 29.0256C200.814 29.8034 200.319 30.849 200.166 32.076L202.15 32.324C202.253 31.503 202.558 30.9326 203.019 30.5264L201.697 29.0256ZM204.782 27.864C203.601 27.864 202.551 28.2527 201.687 29.0345L203.029 30.5175C203.509 30.0833 204.075 29.864 204.782 29.864V27.864ZM208.052 29.0192C207.144 28.2356 206.032 27.864 204.782 27.864V29.864C205.612 29.864 206.244 30.1004 206.744 30.5328L208.052 29.0192Z" fill="#041F20" fill-opacity="0.15" mask="url(#path-1-inside-1_534_102)"/>
</g>
<defs>
<filter id="filter0_d_534_102" x="0" y="0" width="226.334" height="64.666" filterUnits="userSpaceOnUse" color-interpolation-filters="sRGB">
<feFlood flood-opacity="0" result="BackgroundImageFix"/>
<feColorMatrix in="SourceAlpha" type="matrix" values="0 0 0 0 0 0 0 0 0 0 0 0 0 0 0 0 0 0 127 0" result="hardAlpha"/>
<feOffset dy="2"/>
<feGaussianBlur stdDeviation="7.5"/>
<feComposite in2="hardAlpha" operator="out"/>
<feColorMatrix type="matrix" values="0 0 0 0 0.0901961 0 0 0 0 0.156863 0 0 0 0 0.286275 0 0 0 0.15 0"/>
<feBlend mode="normal" in2="BackgroundImageFix" result="effect1_dropShadow_534_102"/>
<feBlend mode="normal" in="SourceGraphic" in2="effect1_dropShadow_534_102" result="shape"/>
</filter>
</defs>
</svg>
